# xmcd
#
# Track frame offsets:
#	150
#	17393
#	28721
#	40375
#	62144
#	83715
#	98695
#	113402
#	133266
#	154761
#	182970
#	197213
#	214077
#	224373
#	247421
#
# Disc length: 3700 seconds
#
# Revision: 1
# Processed by: cddbd v1.5.2PL0 Copyright (c) Steve Scherf et al.
# Submitted via: audiograbber 1.83.01
#
DISCID=d60e720f
DTITLE=Rust Kings - Hotel West Virginia
DYEAR=2006
DGENRE=Bluegrass
TTITLE0=Hotel WV
TTITLE1=Fog On The Ring
TTITLE2=Briar Switch
TTITLE3=Each June
TTITLE4=To The Bitter End
TTITLE5=Crosscut Saw
TTITLE6=Winter Wind
TTITLE7=Better View Of Heaven
TTITLE8=Unspoken Words (Dancin' Round and Round)
TTITLE9=Cheap Whiskey Waltz
TTITLE10=New To This Day
TTITLE11=Black Dog Wanderin'
TTITLE12=I Like The Rain
TTITLE13=Maggie's Field
TTITLE14=Where You Goin'?
EXTD=
EXTT0=
EXTT1=
EXTT2=
EXTT3=
EXTT4=
EXTT5=
EXTT6=
EXTT7=
EXTT8=
EXTT9=
EXTT10=
EXTT11=
EXTT12=
EXTT13=
EXTT14=
PLAYORDER=
